<?xml version="1.0" encoding="UTF-8"?>
<svg id="Layer_1" xmlns="http://www.w3.org/2000/svg" version="1.1" viewBox="0 0 32 32">
  <!-- Generator: Adobe Illustrator 30.5.1, SVG Export Plug-In . SVG Version: 2.1.4 Build 3)  -->
  <defs>
    <style>
      .st0 {
        fill: #d46b08;
      }

      .st1 {
        fill: #f3efe6;
        fill-rule: evenodd;
      }
    </style>
  </defs>
  <rect class="st0" width="32" height="32" rx="4" ry="4"/>
  <g>
    <path class="st1" d="M8.7,12.9c1-.5,2.2,0,2.7,1l2.2,4.7s0,.1,0,.3h0c0,.2,0,.3,0,.5h0c0,.1.2.2.3.3h0s0,0,0,0c.2,0,.3.2.3.2.4,1,0,2.2-1,2.6h0c-.9.4-1.8.2-2.4-.5-.1-.1,0-.3,0-.4,0,0,0,0,0,0h0s0,0,0,0c0-.1,0-.3,0-.4h0c0-.1-.2-.2-.3-.3h0s0,0,0,0c0,0,0,0,0,0-.3-.1-.4-.3-.4-.3h0s0,0,0,0l-2.3-4.9c-.5-1,0-2.2,1-2.7h0Z"/>
    <path class="st1" d="M12.5,10.3c1.1-.5,2.3,0,2.8,1l2.7,5.9c.1.2,0,.4,0,.4h0c0,.2,0,.3,0,.5,0,.1.2.2.3.3h0s0,0,0,0c0,0,0,0,0,0,.2.1.3.3.3.4.1.9-.4,1.8-1.2,2.2h0c-1.1.5-2.3,0-2.8-1v-.2c0,0,0,0,0,0,0,0,0-.1,0-.3,0,0,0,0,0,0h0c0-.1,0-.3,0-.4,0-.2-.2-.3-.4-.3-.2,0-.3-.2-.3-.2h0s0,0,0,0h0s0,0,0,0h0s-2.5-5.3-2.5-5.3c-.5-1.1,0-2.3,1-2.8Z"/>
    <path class="st1" d="M28,16.1c0,0,0-.3,0-.3,0,0,0,0-.1,0,0,0-.4.4-.5.5-.7.6-1.3,1.2-2.1,1.5,0,0,0,0-.1,0,.4.6,1,1.6.4,2.7.9-.4,1.4-.8,1.9-1.7.3-.6.5-1.2.6-1.8,0-.3,0-.7,0-1h0Z"/>
    <path class="st1" d="M24,17.1c.3.7,2.2,2.1.9,3.8-1.2,1.6-1.2,2.1-1.3,2.5,0,0,0,0,0,.1-.1,1.8-2.6,2.3-4.3,2.3-.8,0-2.4-.3-3.6-.2-.5,0-1,.2-1.4,0-.1,0-.3-.2-.4-.3-.4-.7,0-1.6.4-2.2,1.3-1.4,3.8-.8,5.2-2.5.9-1.1.5-2.5.9-3.8.3-.9,1-1.7,1.9-2.1,0,0,.3-.2.5-.3.2,0,.3,0,.4.2.2.9.3,1.6.7,2.4h0Z"/>
    <path class="st1" d="M22.4,25.5c1.1-.3,2-.7,2.8-1.6,0,0,.3-.4.4-.6,0,0,0,0,0,0,0,0,0-.1,0-.2-.6.4-1.4.5-1.7.5,0,.2-.2.6-.5,1-.2.3-.6.5-1.1.8h0Z"/>
    <path class="st1" d="M26,22.4c-.6.6-1.1.8-2,1,0-.3,0-.8,1.1-2.2.2,0,1.2-.4,1.8-1,0,0,0,0,0,0,0,0,0,0,0,0,0,.2,0,.4-.1.6-.2.6-.5,1.1-1,1.5Z"/>
    <path class="st1" d="M5.1,15.4h0c1-.5,2.1,0,2.6.9l2.4,5.1c.5,1,0,2.1-.9,2.6h0c-1,.5-2.1,0-2.6-.9l-2.4-5.1c-.5-1,0-2.1.9-2.6Z"/>
    <path class="st1" d="M20.1,6.2c-2.7,0-3.9,3.6-3.9,4.9,0,2.1,1.7,3.9,3.9,3.9s3.9-1.7,3.9-3.9-1.2-4.9-3.9-4.9ZM23,10.6c-.5-.4-1.7-.7-3-.7s-2.5.3-3,.7c0,0,0,0,0,0,0,0,0,0,0,0,0,0,0,0,0,0,0,0,0,0,0,0,0,0,0,0,0,0,.2-.8.8-1.4,1.6-1.7.2,0,.4,0,.7,0h1.5c.2,0,.5,0,.7,0,.8.2,1.4.9,1.6,1.7,0,0,0,0,0,0,0,0,0,0,0,0,0,0,0,0,0,0h0s0,0,0,0c0,0,0,0,0,0Z"/>
  </g>
</svg>