<?xml version="1.0" encoding="UTF-8"?>
<svg id="Layer_2" data-name="Layer 2" xmlns="http://www.w3.org/2000/svg" viewBox="0 0 32 32">
  <defs>
    <style>
      .cls-1 {
        fill: #f18707;
      }

      .cls-2 {
        fill: #f3efe6;
        fill-rule: evenodd;
      }
    </style>
  </defs>
  <g id="Layer_1-2" data-name="Layer 1">
    <g>
      <rect class="cls-1" width="32" height="32" rx="8" ry="8"/>
      <g>
        <path class="cls-2" d="M8.74,12.88c1.02-.47,2.23-.03,2.7.98l2.18,4.67s.06.15-.03.33h0c-.08.15-.08.34,0,.5h0c.07.14.19.25.33.3h0s0,0,0,0c.24.09.34.22.34.23.42,1-.03,2.16-1.02,2.62h0c-.85.4-1.84.15-2.42-.54-.11-.14-.07-.32-.05-.4,0-.01.01-.03.02-.05h0s0,0,0,0c.04-.13.04-.29-.03-.42h0c-.06-.13-.17-.23-.3-.29h0s0,0,0,0c-.01,0-.02,0-.03-.01-.27-.11-.37-.29-.38-.3h0s0,0,0,0l-2.3-4.93c-.47-1.02-.03-2.23.98-2.7h0Z"/>
        <path class="cls-2" d="M12.53,10.26c1.06-.5,2.33-.04,2.83,1.03l2.74,5.88c.1.22.02.44.02.45h0c-.07.15-.08.34,0,.5.06.13.17.23.29.28h0s0,0,0,0c.01,0,.03.01.04.02.24.1.28.31.29.35.11.89-.36,1.79-1.21,2.19h0c-1.06.5-2.33.04-2.83-1.03l-.09-.18h0s-.06-.14,0-.33c.02-.03.03-.06.04-.08h0c.05-.14.05-.3-.02-.44-.07-.16-.21-.27-.37-.31-.22-.07-.29-.18-.29-.2h0s0,0,0,0h0s0,0,0,0h0s-2.46-5.29-2.46-5.29c-.5-1.06-.04-2.33,1.03-2.83Z"/>
        <path class="cls-2" d="M27.99,16.1c0-.06-.03-.27-.05-.3-.03-.05-.06-.05-.11-.03-.07.03-.39.4-.49.49-.68.63-1.33,1.19-2.14,1.55-.04.02-.08.03-.12.04.42.58.96,1.63.42,2.75.86-.37,1.38-.85,1.86-1.69.32-.56.51-1.19.59-1.83.04-.32.05-.65.03-.98h0Z"/>
        <path class="cls-2" d="M24.01,17.1c.34.73,2.22,2.07.87,3.76-1.24,1.56-1.25,2.15-1.25,2.53,0,.04,0,.08,0,.12-.15,1.8-2.62,2.31-4.26,2.29-.79-.01-2.43-.28-3.64-.2-.46.03-.99.24-1.4.05-.14-.06-.26-.17-.36-.34-.41-.68-.08-1.62.44-2.16,1.34-1.41,3.83-.83,5.19-2.45.88-1.06.51-2.54.91-3.77.31-.95,1.04-1.67,1.89-2.15.08-.04.31-.18.51-.26.16-.06.34.03.38.2.22.9.32,1.6.73,2.38h0Z"/>
        <path class="cls-2" d="M22.4,25.54c1.06-.26,2.05-.74,2.79-1.59.05-.05.32-.41.4-.57,0-.02.02-.04.02-.05.02-.05.04-.11.06-.16-.64.35-1.37.5-1.68.55-.04.24-.16.62-.52,1.03-.24.26-.58.54-1.07.79h0Z"/>
        <path class="cls-2" d="M26.02,22.37c-.62.58-1.14.8-2,.95,0-.33.08-.85,1.13-2.18.24-.08,1.17-.41,1.84-1,.04-.02.08-.03.09-.02,0,.03,0,.07,0,.1,0,.21-.05.4-.11.6-.18.62-.52,1.13-.96,1.55Z"/>
        <path class="cls-2" d="M5.12,15.42h0c.97-.45,2.12-.03,2.57.94l2.37,5.08c.45.97.03,2.12-.94,2.57h0c-.97.45-2.12.03-2.57-.94l-2.37-5.08c-.45-.97-.03-2.12.94-2.57Z"/>
        <path class="cls-2" d="M20.06,6.21c-2.67,0-3.87,3.61-3.87,4.91,0,2.14,1.73,3.87,3.87,3.87s3.87-1.73,3.87-3.87c0-1.3-1.2-4.91-3.87-4.91ZM23.05,10.61c-.52-.43-1.66-.73-2.99-.73s-2.46.3-2.99.73c-.03.03-.06.03-.06,0,0-.01,0-.03,0-.04,0-.03.01-.05.02-.07,0,0,0,0,0,0,0,0,0,0,0,0,.2-.8.81-1.43,1.59-1.67.21-.06.43-.1.66-.1h1.55c.23,0,.45.03.66.1.78.23,1.4.87,1.59,1.67,0,0,0,0,0,0,0,0,0,0,0,0,0,.02.01.05.02.07h0s0,.03,0,.04c0,.03-.03.03-.06,0Z"/>
      </g>
    </g>
  </g>
</svg>